<svg xmlns="http://www.w3.org/2000/svg" xmlns:xlink="http://www.w3.org/1999/xlink" width="40" zoomAndPan="magnify" viewBox="0 0 30 30.000001" height="40" preserveAspectRatio="xMidYMid meet" version="1.0"><defs><clipPath id="14db4fdc04"><path d="M 2.925781 0.535156 L 26.875 0.535156 L 26.875 28.84375 L 2.925781 28.84375 Z M 2.925781 0.535156 " clip-rule="nonzero"/></clipPath></defs><path fill="#ffffff" d="M 4.011719 27.398438 L 4.011719 12.832031 L 14.996094 1.84375 L 25.980469 12.832031 L 25.980469 27.398438 Z M 4.011719 27.398438 " fill-opacity="1" fill-rule="nonzero"/><path fill="#f39200" d="M 25.96875 17.78125 C 25.964844 17.769531 25.960938 17.757812 25.957031 17.746094 C 25.949219 17.71875 25.941406 17.6875 25.933594 17.660156 C 25.925781 17.644531 25.914062 17.625 25.902344 17.609375 C 25.894531 17.589844 25.882812 17.570312 25.871094 17.550781 C 25.847656 17.515625 25.820312 17.480469 25.792969 17.453125 C 25.789062 17.453125 25.789062 17.453125 25.789062 17.449219 L 19.953125 11.691406 C 19.699219 11.441406 19.292969 11.441406 19.042969 11.691406 L 13.207031 17.449219 C 13.207031 17.453125 13.207031 17.453125 13.207031 17.453125 C 13.175781 17.480469 13.148438 17.515625 13.125 17.550781 C 13.113281 17.570312 13.101562 17.589844 13.09375 17.609375 C 13.082031 17.625 13.074219 17.644531 13.0625 17.660156 C 13.054688 17.6875 13.046875 17.71875 13.039062 17.746094 C 13.035156 17.757812 13.03125 17.769531 13.027344 17.78125 C 13.019531 17.824219 13.015625 17.867188 13.015625 17.910156 C 13.015625 17.910156 13.015625 17.910156 13.015625 17.914062 L 13.015625 26.75 C 13.015625 27.109375 13.304688 27.398438 13.664062 27.398438 L 25.332031 27.398438 C 25.691406 27.398438 25.980469 27.109375 25.980469 26.75 L 25.980469 17.914062 C 25.980469 17.914062 25.980469 17.910156 25.980469 17.910156 C 25.980469 17.867188 25.976562 17.824219 25.96875 17.78125 Z M 25.96875 17.78125 " fill-opacity="1" fill-rule="nonzero"/><g clip-path="url(#14db4fdc04)"><path fill="#f39200" d="M 26.851562 12.171875 L 15.503906 0.828125 C 15.222656 0.546875 14.769531 0.546875 14.488281 0.828125 L 3.140625 12.171875 C 2.992188 12.320312 2.925781 12.519531 2.933594 12.714844 C 2.933594 12.726562 2.929688 12.734375 2.929688 12.746094 L 2.929688 27.757812 C 2.929688 28.15625 3.253906 28.480469 3.652344 28.480469 L 26.34375 28.480469 C 26.738281 28.480469 27.0625 28.15625 27.0625 27.757812 L 27.0625 12.746094 C 27.0625 12.734375 27.058594 12.726562 27.058594 12.714844 C 27.066406 12.519531 27 12.320312 26.851562 12.171875 Z M 25.621094 27.039062 L 4.371094 27.039062 L 4.371094 12.980469 L 14.996094 2.355469 L 25.621094 12.980469 Z M 25.621094 27.039062 " fill-opacity="1" fill-rule="nonzero"/></g></svg>